
<svg width="471" height="207" viewBox="0 0 471 207" fill="none" xmlns="http://www.w3.org/2000/svg">
    <path d="M411.228 200.664V201.664H412.228H454.014H455.014V200.664V158.484H468.222H469.222V157.484V115.698V114.698H468.222H455.014V5.65942V4.65942H454.014H402.756H402.219L401.923 5.10667L328.935 115.145L328.769 115.396V115.698V157.484V158.484H329.769H411.228V200.664ZM411.228 65.3619V114.698H379.786L411.228 65.3619Z" stroke="#DEDEDE" stroke-width="2"/>
    <path d="M161.839 142.731L161.842 142.74C165.679 155 171.066 165.827 178.01 175.212C184.958 184.6 193.139 191.987 202.555 197.354L202.566 197.36C212.099 202.646 222.527 205.285 233.833 205.285C245.139 205.285 255.523 202.645 264.965 197.358L264.968 197.356C274.48 191.988 282.664 184.6 289.521 175.207C296.372 165.822 301.665 154.994 305.409 142.735C309.248 130.374 311.164 117.181 311.164 103.162C311.164 89.1429 309.248 75.9965 305.409 63.7283C301.666 51.3768 296.372 40.5024 289.521 31.1168C282.664 21.7238 274.479 14.3809 264.967 9.10554C255.525 3.72483 245.14 1.03784 233.833 1.03784C222.525 1.03784 212.094 3.72556 202.56 9.10572C193.141 14.3807 184.958 21.7222 178.01 31.1116C171.065 40.4972 165.678 51.372 161.841 63.7248L161.84 63.7294C158.094 75.9972 156.224 89.1431 156.224 103.162C156.224 117.18 158.094 130.372 161.839 142.731ZM254.292 153.301L254.286 153.307C249.015 158.757 242.227 161.499 233.833 161.499C225.538 161.499 218.745 158.76 213.377 153.304C207.937 147.681 203.878 140.448 201.223 131.57C198.559 122.567 197.225 113.099 197.225 103.162C197.225 95.6126 197.962 88.3459 199.432 81.36C200.901 74.3865 203.144 68.1671 206.155 62.6926L206.159 62.6865C209.157 57.1444 212.955 52.8134 217.545 49.6635L217.545 49.6635L217.556 49.6559C222.103 46.4463 227.514 44.8245 233.833 44.8245C241.852 44.8245 248.463 47.472 253.741 52.7497L253.747 52.7557L253.753 52.7616C259.18 58.0076 263.282 65.0468 266.029 73.9279C268.781 82.8278 270.163 92.5699 270.163 103.162C270.163 113.197 268.874 122.714 266.301 131.719C263.739 140.595 259.728 147.775 254.292 153.301Z" stroke="#DEDEDE" stroke-width="2"/>
    <path d="M83.6809 200.664V201.664H84.6809H126.468H127.468V200.664V158.484H140.675H141.675V157.484V115.698V114.698H140.675H127.468V5.65942V4.65942H126.468H75.2093H74.6726L74.3759 5.10667L1.38852 115.145L1.22186 115.396V115.698V157.484V158.484H2.22186H83.6809V200.664ZM83.6809 65.3619V114.698H52.239L83.6809 65.3619Z" stroke="#DEDEDE" stroke-width="2"/>
</svg>